<<svg xmlns="http://www.w3.org/2000/svg" viewBox="0 0 200 60" fill="none">
  <defs>
    <linearGradient id="flameGrad" x1="0%" y1="100%" x2="100%" y2="0%">
      <stop offset="0%" style="stop-color:#ff6b35;stop-opacity:1" />
      <stop offset="50%" style="stop-color:#ff8c5a;stop-opacity:1" />
      <stop offset="100%" style="stop-color:#f4a261;stop-opacity:1" />
    </linearGradient>
  </defs>
  <path d="M25 45 C15 45, 10 35, 10 25 C10 15, 18 8, 25 2 C28 8, 32 15, 32 20 C32 22, 30 24, 28 22 C27 20, 26 18, 25 16 C22 20, 18 25, 18 30 C18 35, 22 38, 25 38 C30 38, 35 33, 35 25 C35 20, 32 15, 28 12 C30 18, 30 22, 28 25 C27 27, 25 28, 25 30 C25 32, 27 33, 28 32 C30 30, 30 28, 30 25 C30 30, 28 35, 25 35 C20 35, 18 30, 18 25 C18 20, 22 15, 25 12 C23 18, 23 22, 25 25 C26 27, 28 28, 28 30 C28 32, 26 33, 25 33 C22 33, 20 30, 20 25 C20 20, 23 15, 25 12" fill="url(#flameGrad)" stroke="none"/>
  <text x="50" y="38" font-family="-apple-system, BlinkMacSystemFont, 'Segoe UI', Roboto, sans-serif" font-size="32" font-weight="800" fill="#ffffff" letter-spacing="-1">O</text>
  <text x="78" y="38" font-family="-apple-system, BlinkMacSystemFont, 'Segoe UI', Roboto, sans-serif" font-size="32" font-weight="800" fill="url(#flameGrad)" letter-spacing="-1">G</text>
  <text x="105" y="38" font-family="-apple-system, BlinkMacSystemFont, 'Segoe UI', Roboto, sans-serif" font-size="32" font-weight="800" fill="#ffffff" letter-spacing="-1">as</text>
  <text x="50" y="52" font-family="sans-serif" font-size="8" font-weight="500" fill="#a0a0a0" letter-spacing="3">MARKETPLACE</text>
</svg>
